<svg version="1.1" id="Layer_1" xmlns="http://www.w3.org/2000/svg" xmlns:xlink="http://www.w3.org/1999/xlink" x="0px" y="0px"
	 width="100%" viewBox="0 0 1024 1024" enable-background="new 0 0 1024 1024" xml:space="preserve">
<path fill="#000000" opacity="1.000000" stroke="none" 
	d="
M440.081116,804.016174 
	C441.452179,807.102722 442.658478,809.846252 443.935394,812.556641 
	C444.424744,813.595337 445.075287,814.558105 446.408783,815.451294 
	C446.098663,810.834412 445.809570,806.215942 445.475311,801.600830 
	C439.776764,722.925415 476.151367,649.316406 555.903076,615.712097 
	C579.226624,605.884460 603.366455,598.116089 626.521057,587.829041 
	C675.913452,565.885193 716.915771,533.671204 747.824463,489.076935 
	C757.832275,474.638000 765.298706,458.799408 772.566223,442.872467 
	C773.836182,440.089264 775.144653,437.323578 776.976807,433.386139 
	C780.438843,442.063080 781.224487,449.796997 782.194763,457.421051 
	C785.250427,481.432220 786.127441,505.538483 784.236084,529.690735 
	C779.229736,593.619385 760.479065,652.480042 718.901917,702.483154 
	C685.163940,743.058472 642.725891,770.054199 591.103516,782.321960 
	C570.555603,787.205139 549.710144,791.114624 529.914551,798.783875 
	C512.830933,805.402466 497.204224,814.480164 483.824890,827.152588 
	C482.909393,828.019653 481.545166,828.610962 481.472137,830.421509 
	C486.379120,832.050781 491.587280,832.279663 496.619263,832.457092 
	C513.098816,833.038269 529.641663,833.487549 546.043213,831.493286 
	C571.705933,828.373108 596.960876,823.275696 621.119019,813.693237 
	C693.315247,785.056213 749.427795,737.764832 786.871338,669.389404 
	C804.302063,637.559326 814.513367,603.180176 819.738770,567.242065 
	C822.749878,546.533020 823.866150,525.727661 822.492676,504.961121 
	C818.286133,441.360291 797.580017,383.815094 758.388000,333.076447 
	C729.503357,295.682007 694.484192,265.777496 652.636719,243.922684 
	C625.946594,229.983841 598.060730,219.209579 568.417969,213.324890 
	C561.906250,212.032166 561.893799,211.911957 563.695923,205.469635 
	C566.384277,195.858841 569.157959,186.269409 571.648315,176.607208 
	C572.408752,173.657043 573.880981,173.464096 576.381653,173.972092 
	C609.072266,180.613083 640.169739,191.806183 669.756531,207.102646 
	C720.204895,233.184525 762.176208,269.248169 795.753357,315.062286 
	C826.977417,357.665558 846.986633,405.121521 857.525391,456.778717 
	C862.405945,480.701294 864.881714,504.840546 864.204041,529.174561 
	C861.977234,609.139832 837.225586,681.128052 786.255188,743.313782 
	C756.241821,779.931091 720.245483,809.439758 678.288879,831.687073 
	C643.229431,850.277222 606.303040,863.230835 567.065186,868.927856 
	C491.440399,879.908142 419.507111,868.079102 351.513214,832.843262 
	C319.317505,816.158813 289.960571,795.604004 264.386810,769.841980 
	C227.815002,733.001038 200.331665,690.387634 182.807678,641.380981 
	C167.140030,597.565735 159.462860,552.449768 162.029572,506.025085 
	C163.927231,471.701508 170.695114,438.094116 182.464905,405.627533 
	C202.713135,349.773529 234.176773,301.218903 278.175903,261.288116 
	C320.036438,223.298126 368.648102,196.895432 422.860931,180.886826 
	C431.472870,178.343796 440.242645,176.337875 448.925720,174.031952 
	C452.059998,173.199585 454.213379,173.428101 455.190857,177.276550 
	C457.770355,187.432220 460.538116,197.546661 463.540375,207.584961 
	C464.665375,211.346481 463.536743,212.596909 459.931335,213.318573 
	C416.724884,221.966492 376.969788,238.797333 340.830627,264.037781 
	C293.380096,297.178345 257.018433,339.771759 232.070801,392.042725 
	C218.835526,419.773651 211.112503,449.135925 206.306839,479.357697 
	C202.970215,500.340942 202.467926,521.511353 203.504974,542.626831 
	C204.663071,566.207275 207.956192,589.555725 216.640823,611.886169 
	C216.355042,606.702454 215.974030,601.521912 215.799225,596.334351 
	C214.798355,566.635132 219.115982,537.784485 231.491608,510.650513 
	C244.024323,483.172241 262.105774,460.676392 291.549316,449.651031 
	C301.290009,446.003571 311.381927,444.033417 321.813110,443.838074 
	C323.697205,443.802826 325.851837,444.530792 327.385101,442.667633 
	C327.428009,440.636108 325.791199,439.794098 324.668274,438.647858 
	C301.345459,414.841278 299.436890,380.682739 320.211639,354.685699 
	C326.906891,346.307434 335.610382,340.388000 345.777435,336.997498 
	C349.897247,335.623596 351.053680,333.445099 350.922363,329.326965 
	C350.519287,316.684753 349.849915,303.947723 354.783295,291.855591 
	C365.532562,265.508087 385.271454,250.457291 413.393646,247.836899 
	C438.615295,245.486755 464.016388,247.330444 489.333191,246.819763 
	C496.686951,246.671432 496.697144,246.755081 496.708008,239.248062 
	C496.718597,231.915100 496.488831,224.572998 496.790649,217.252487 
	C496.974609,212.790009 495.688782,209.492126 492.629303,206.119095 
	C480.754913,193.027832 481.732452,173.795868 494.434509,163.310013 
	C506.494019,153.354599 522.487671,154.313766 533.691406,165.664368 
	C544.779541,176.897873 545.469116,192.590240 534.572388,204.787384 
	C530.348755,209.515076 529.165161,214.074951 529.628662,220.118240 
	C530.161194,227.060730 529.749390,234.106018 529.323120,241.080719 
	C529.050598,245.539902 530.700745,246.864532 535.018738,246.834991 
	C556.349915,246.689148 577.700195,247.338196 599.010864,246.665741 
	C630.027405,245.687027 660.872375,268.897217 668.002136,297.946289 
	C669.251404,303.036163 669.527649,308.138977 669.616089,313.285400 
	C669.699097,318.112701 669.613892,322.952362 669.356140,327.773407 
	C669.089355,332.764221 670.929810,335.392395 675.969116,337.206238 
	C697.063049,344.798615 712.715820,368.194244 713.494202,390.505188 
	C714.225098,411.456451 706.273804,428.009369 690.739685,441.439056 
	C690.384949,441.745789 690.194641,442.242798 689.335571,443.556244 
	C703.202271,446.537048 716.690491,442.572510 729.910278,443.881897 
	C730.974487,446.085602 729.681396,447.633698 728.935120,449.225647 
	C717.378906,473.877106 697.716919,488.548492 671.690979,494.960419 
	C667.057007,496.102112 664.451782,498.271179 661.818237,502.114899 
	C645.011353,526.644958 624.151611,546.838562 597.913025,561.351746 
	C578.830750,571.906616 558.248718,578.615173 537.914612,585.995789 
	C484.032501,605.553284 447.741547,642.090332 431.132416,697.236694 
	C421.774139,728.308472 422.290497,759.272583 434.648407,789.663025 
	C436.526947,794.282715 438.184723,798.992065 440.081116,804.016174 
M430.584930,468.144501 
	C446.684052,438.211670 467.558899,412.059265 492.939240,389.489655 
	C495.145233,387.527893 496.746643,385.550354 496.740356,382.327942 
	C496.677032,349.840179 496.680542,317.352081 496.770752,284.864380 
	C496.780212,281.448212 495.615540,280.114014 492.144653,280.127960 
	C467.654449,280.226349 443.159607,279.935699 418.674622,280.312378 
	C402.300781,280.564270 388.497223,291.735352 384.733124,307.148224 
	C383.020538,314.160706 384.409546,321.435181 383.912903,328.565186 
	C383.617065,332.812561 385.013092,334.954865 389.225647,336.675659 
	C424.981659,351.281830 438.964233,391.930481 419.832733,424.999329 
	C415.572144,432.363831 409.884644,438.518097 402.553131,443.803894 
	C408.385193,444.589417 413.507843,442.883545 418.476349,444.031708 
	C419.079895,446.173035 418.080475,447.610809 417.480835,449.118195 
	C412.902649,460.626587 406.902374,471.397644 399.846710,481.525757 
	C380.588806,509.169617 355.720245,528.917969 321.971466,535.818970 
	C311.378448,537.985046 300.773224,539.922119 290.673615,544.094177 
	C260.887756,556.398560 245.852020,585.459534 253.346680,616.718262 
	C261.298981,649.885742 294.108917,671.375488 327.387573,664.563660 
	C353.768585,659.163757 369.254669,641.693665 376.437958,616.621826 
	C381.719238,598.188538 386.880524,579.809448 396.241852,562.904541 
	C399.422882,557.160095 403.727386,552.145752 404.771759,545.104004 
	C408.760590,518.209351 417.383636,492.771027 430.584930,468.144501 
M529.893860,303.332367 
	C529.722595,319.979523 529.519104,336.626434 529.396179,353.273956 
	C529.348633,359.717896 530.394287,360.387543 535.767944,357.050079 
	C547.431091,349.806335 560.092896,344.668427 572.622803,339.244873 
	C573.917053,338.684692 575.283936,337.796600 577.236511,338.933624 
	C571.042603,361.235260 560.928101,381.618469 547.207520,400.245087 
	C533.603699,418.713165 517.439941,434.954681 501.237946,451.550629 
	C504.252472,453.187805 505.801819,451.402252 507.482300,450.665924 
	C521.638672,444.462708 536.162781,440.396393 551.868774,440.525513 
	C568.226379,440.660004 584.231873,444.520935 600.576904,444.402374 
	C604.921509,444.370850 609.386963,445.572266 613.426086,443.436707 
	C613.548218,440.650269 611.620117,439.890839 610.404785,438.621124 
	C594.073608,421.559692 586.636780,401.668610 592.948608,378.314972 
	C598.474731,357.868530 611.415039,343.562103 631.702087,336.494293 
	C635.096558,335.311646 637.064697,333.717560 636.868408,329.759613 
	C636.612976,324.607513 636.323303,319.367645 636.953796,314.277679 
	C638.915527,298.439911 621.559631,281.051605 604.581055,280.479004 
	C581.445374,279.698761 558.263123,280.323822 535.100952,280.277954 
	C531.522705,280.270874 529.906433,281.814331 529.936707,285.371429 
	C529.984985,291.036377 529.921753,296.702240 529.893860,303.332367 
M385.511566,717.933716 
	C384.458710,705.964966 384.574707,693.993225 385.346313,682.013977 
	C385.571411,678.519470 386.587677,674.922974 384.823181,671.629395 
	C332.850739,711.688171 283.963165,708.400208 237.411804,662.746887 
	C255.564331,700.259949 281.132233,732.043762 312.944855,758.755798 
	C340.256714,781.688599 371.042053,798.862915 405.338257,812.541199 
	C400.350891,796.112183 395.117615,781.237427 392.173645,765.721252 
	C389.228699,750.200073 385.976196,734.738464 385.511566,717.933716 
M675.425049,412.895355 
	C691.010925,393.913574 680.015320,369.392273 659.036072,364.897339 
	C639.550903,360.722534 621.043091,376.142944 622.714783,395.933563 
	C623.790161,408.665741 631.308228,417.942474 643.932556,421.642731 
	C655.677185,425.085144 666.299255,422.541779 675.425049,412.895355 
M337.310760,395.313263 
	C337.689758,400.377319 339.168304,405.055603 341.867340,409.399353 
	C350.192017,422.796783 368.612244,427.254791 382.326660,419.116821 
	C396.242859,410.859131 401.202698,392.967651 393.408234,379.142914 
	C387.138641,368.022797 373.292389,362.242035 360.287506,365.315094 
	C347.114960,368.427734 337.883392,380.126770 337.310760,395.313263 
z"/>
<path fill="#000000" opacity="1.000000" stroke="none" 
	d="
M279.973206,583.232300 
	C289.154633,567.692566 305.149323,559.563843 321.166321,562.033386 
	C338.736877,564.742493 351.778900,576.769775 355.614838,593.801514 
	C360.343414,614.796570 346.333893,636.205139 324.517517,641.322510 
	C303.298706,646.299805 281.919067,633.261536 276.804047,612.288818 
	C274.376648,602.335876 275.656769,592.816040 279.973206,583.232300 
z"/>
</svg>